HIERARCHY
ROOT Hips
{
	OFFSET	0.00	0.00	0.00
	CHANNELS 6 Xposition Yposition Zposition Zrotation Xrotation Yrotation
	JOINT LeftUpLeg
	{
		OFFSET	 0.126116	-0.014019	-0.065224
		CHANNELS 3 Zrotation Xrotation Yrotation
		JOINT LeftLeg
		{
			OFFSET	 0.000000	 0.000000	 0.569914
			CHANNELS 3 Zrotation Xrotation Yrotation
			JOINT LeftFoot
			{
				OFFSET	 0.000000	 0.000000	 0.544423
				CHANNELS 3 Zrotation Xrotation Yrotation
				JOINT LeftToeBase
				{
					OFFSET	 0.000000	 0.000000	 0.207117
					CHANNELS 3 Zrotation Xrotation Yrotation
					End Site
					{
						OFFSET	 0.000000	 0.000000	 0.207117
					}
				}
			}
		}
	}
	JOINT RightUpLeg
	{
		OFFSET	-0.124023	-0.008373	-0.065224
		CHANNELS 3 Zrotation Xrotation Yrotation
		JOINT RightLeg
		{
			OFFSET	 0.000000	 0.000000	 0.570047
			CHANNELS 3 Zrotation Xrotation Yrotation
			JOINT RightFoot
			{
				OFFSET	 0.000000	 0.000000	 0.544354
				CHANNELS 3 Zrotation Xrotation Yrotation
				JOINT RightToeBase
				{
					OFFSET	 0.000000	 0.000000	 0.207540
					CHANNELS 3 Zrotation Xrotation Yrotation
					End Site
					{
						OFFSET	 0.000000	 0.000000	 0.207540
					}
				}
			}
		}
	}
	JOINT Spine
	{
		OFFSET	 0.000184	-0.007763	 0.117403
		CHANNELS 3 Zrotation Xrotation Yrotation
		JOINT Spine1
		{
			OFFSET	 0.000000	 0.000000	 0.137269
			CHANNELS 3 Zrotation Xrotation Yrotation
			JOINT Spine2
			{
				OFFSET	 0.000000	 0.000000	 0.156879
				CHANNELS 3 Zrotation Xrotation Yrotation
				JOINT LeftShoulder
				{
					OFFSET	 0.080501	-0.002496	 0.160144
					CHANNELS 3 Zrotation Xrotation Yrotation
					JOINT LeftArm
					{
						OFFSET	 0.000000	 0.000000	 0.164363
						CHANNELS 3 Zrotation Xrotation Yrotation
						JOINT LeftForeArm
						{
							OFFSET	 0.000000	 0.000000	 0.364576
							CHANNELS 3 Zrotation Xrotation Yrotation
							JOINT LeftHand
							{
								OFFSET	 0.000000	 0.000000	 0.360812
								CHANNELS 3 Zrotation Xrotation Yrotation
								JOINT LeftHandIndex1
								{
									OFFSET	 0.000000	 0.000000	 0.086006
									CHANNELS 3 Zrotation Xrotation Yrotation
									JOINT LeftHandIndex2
									{
										OFFSET	 0.000000	 0.000000	 0.047236
										CHANNELS 3 Zrotation Xrotation Yrotation
										JOINT LeftHandIndex3
										{
											OFFSET	-0.004284	-0.000551	 0.038166
											CHANNELS 3 Zrotation Xrotation Yrotation
											End Site
											{
												OFFSET	-0.004284	-0.000551	 0.038166
											}
										}
									}
								}
							}
						}
					}
				}
				JOINT Neck
				{
					OFFSET	 0.000000	 0.000000	 0.176489
					CHANNELS 3 Zrotation Xrotation Yrotation
					JOINT Head
					{
						OFFSET	 0.000000	-0.001747	 0.077940
						CHANNELS 3 Zrotation Xrotation Yrotation
						End Site
						{
							OFFSET	 0.000000	-0.001747	 0.077940
						}
					}
				}
				JOINT RightShoulder
				{
					OFFSET	-0.080363	 0.000306	 0.159706
					CHANNELS 3 Zrotation Xrotation Yrotation
					JOINT RightArm
					{
						OFFSET	 0.000000	 0.000000	 0.164196
						CHANNELS 3 Zrotation Xrotation Yrotation
						JOINT RightForeArm
						{
							OFFSET	 0.000000	 0.000000	 0.365611
							CHANNELS 3 Zrotation Xrotation Yrotation
							JOINT RightHand
							{
								OFFSET	 0.000000	 0.000000	 0.360648
								CHANNELS 3 Zrotation Xrotation Yrotation
								JOINT RightHandIndex1
								{
									OFFSET	 0.000000	 0.000000	 0.069977
									CHANNELS 3 Zrotation Xrotation Yrotation
									JOINT RightHandIndex2
									{
										OFFSET	 0.000000	 0.000000	 0.052305
										CHANNELS 3 Zrotation Xrotation Yrotation
										JOINT RightHandIndex3
										{
											OFFSET	 0.009002	-0.000782	 0.042196
											CHANNELS 3 Zrotation Xrotation Yrotation
											End Site
											{
												OFFSET	 0.009002	-0.000782	 0.042196
											}
										}
									}
								}
							}
						}
					}
				}
			}
		}
	}
}
MOTION
Frames:    13
Frame Time: 0.03333334
-0.055762	-2.232897	 1.159948	 4.448268	-1.411114	-2.786773	 15.564250	-16.340480	-174.364200	 0.710012	-50.639850	 0.235883	 106.076100	 82.427890	-110.476000	-2.370606	 31.412200	-0.065339	-19.089510	-35.821640	-176.173100	 13.051320	-60.017320	 12.018910	 9.707081	 76.761470	-3.785319	 2.358287	 33.100260	 0.105558	-0.635754	 9.178360	 2.153620	-1.918413	 0.829853	-1.506657	 2.698866	-0.209599	 1.468915	-93.846080	 58.927250	 175.589600	 13.146720	 32.802920	-36.472690	-18.530650	 2.646098	-8.368929	-0.272653	-4.721793	-6.667571	-4.869274	 19.243970	-2.786489	-3.887675	 21.394100	 2.209003	-4.808254	 5.545551	 0.146962	-0.103021	-5.042765	 0.170305	 0.553822	 2.938321	 2.897428	 89.807950	 61.612640	-179.938500	-19.244590	 49.899010	 16.219240	 16.058760	 2.611574	 8.400064	-3.698071	 9.522459	 0.480816	 6.299397	 25.463690	-0.560019	 1.803539	 45.354720	-6.919916	 0.436238	 24.669740	 3.614157
-0.057255	-2.266149	 1.159458	 5.412082	-0.747306	-2.770318	 14.316150	-15.208600	-174.879200	 1.310781	-50.095090	 0.734970	 112.909400	 82.573840	-117.585400	-2.368927	 31.693490	-0.071708	-21.924810	-38.412830	-177.827100	 13.033620	-55.796110	 11.475760	 11.054270	 81.251650	-5.904876	 2.358971	 33.000920	 0.103239	-0.511391	 8.738008	 1.967302	-2.053949	 0.822600	-1.471479	 2.718856	-0.573242	 1.542279	-94.047330	 59.017810	 175.148800	 12.436330	 30.680820	-37.410410	-19.151830	 2.621615	-8.323367	 0.335603	-4.997928	-7.964072	-4.866150	 19.327050	-2.792558	-3.878076	 21.516850	 2.199252	-4.806081	 5.571278	 0.145459	-0.051356	-5.095928	 0.213554	 0.732381	 2.715734	 2.730052	 89.738620	 61.698590	 179.896200	-18.923410	 50.897190	 14.348670	 15.497860	 2.577268	 8.357076	-3.817442	 10.144390	 0.205573	 6.283324	 24.049480	-0.544633	 1.984975	 43.883730	-7.081577	 0.698378	 23.516070	 3.481978
-0.058614	-2.299878	 1.157483	 6.114430	 0.034665	-2.899498	 13.430590	-14.130170	-175.222200	 1.652501	-49.591450	 0.989786	 121.458600	 82.597340	-126.198200	-2.367199	 31.975280	-0.078112	-24.332400	-40.798380	-179.611600	 12.971270	-50.913090	 10.737720	 16.255850	 84.439220	-12.267500	 2.359788	 32.878870	 0.100415	-0.055227	 8.127038	 1.842076	-2.157997	 0.960653	-1.328679	 2.723234	-0.958546	 1.546527	-94.246930	 58.997600	 174.725900	 11.419750	 28.556660	-38.263430	-19.475340	 2.589584	-8.272711	 0.785671	-5.470124	-8.307102	-4.856837	 19.561900	-2.807384	-3.864011	 21.696220	 2.184958	-4.798891	 5.655874	 0.140505	-0.016740	-5.137814	 0.273932	 0.835043	 2.523844	 2.650411	 89.644580	 61.813140	 179.670200	-18.488040	 51.804390	 12.559320	 14.576530	 2.534672	 8.308526	-4.142398	 10.746850	-0.300327	 6.259122	 22.447200	-0.578567	 2.151958	 42.452250	-7.229112	 1.036984	 21.990890	 3.317751
-0.060152	-2.342817	 1.153363	 6.476962	 0.761623	-3.284045	 12.849560	-12.288440	-175.521900	 1.885163	-48.805850	 1.153249	 133.354300	 82.340500	-138.061100	-2.362956	 32.641870	-0.093379	-25.104840	-43.024780	 178.934700	 12.353380	-44.627150	 9.320381	 36.680970	 86.253000	-34.065300	 2.358464	 33.074990	 0.104964	 0.819618	 7.359711	 1.966817	-2.231513	 1.586852	-1.150897	 2.766034	-1.499059	 1.518301	-94.421700	 58.913140	 174.366800	 9.896613	 26.259440	-39.329940	-20.162170	 2.546010	-8.198412	 0.579839	-6.052622	-7.713407	-4.837728	 19.981530	-2.821398	-3.839819	 22.002670	 2.160377	-4.782465	 5.848985	 0.129149	 0.006237	-5.222281	 0.328806	 0.908966	 2.298418	 2.626547	 89.508760	 61.970920	 179.340500	-17.664880	 52.755410	 10.420240	 12.989390	 2.471933	 8.239769	-4.587277	 11.419550	-1.546774	 6.220521	 20.298620	-0.657501	 2.370829	 40.454070	-7.420474	 1.505114	 19.818220	 3.103347
-0.062290	-2.385648	 1.148332	 6.636912	 1.047792	-3.573944	 12.313360	-9.908807	-176.044200	 2.032833	-47.823040	 1.245257	 141.456600	 82.392490	-146.041300	-2.353497	 34.004850	-0.125167	-24.186930	-44.399940	 178.398900	 11.617470	-39.277050	 7.908052	 105.419400	 86.445050	-103.772400	 2.347696	 34.559090	 0.139942	 1.547935	 6.913020	 2.110668	-2.302217	 2.325490	-1.029330	 2.843857	-2.058215	 1.504727	-94.503910	 58.868860	 174.199200	 8.319246	 24.745330	-40.154320	-20.448860	 2.496483	-8.119809	 0.202645	-6.369002	-7.420457	-4.828021	 20.322340	-2.866664	-3.813206	 22.337030	 2.133347	-4.759900	 6.113488	 0.113497	 0.044712	-5.314050	 0.347956	 1.008137	 2.088548	 2.528777	 89.415780	 62.027060	 179.114400	-16.600800	 53.436530	 8.176181	 11.451660	 2.407173	 8.166928	-4.731248	 11.659010	-2.951426	 6.184165	 18.229420	-0.714613	 2.637037	 37.820370	-7.649753	 1.943980	 17.715780	 2.916356
-0.066152	-2.435484	 1.140044	 6.921865	 1.070542	-3.688651	 11.451480	-6.861521	-176.994100	 2.405763	-46.753650	 1.495772	 146.381300	 83.263290	-150.877600	-2.326140	 37.287920	-0.205180	-23.718730	-46.874870	 177.484600	 11.736180	-35.746800	 7.376028	 70.222630	 86.228040	-69.237080	 2.335966	 36.001230	 0.174884	 2.132191	 6.871585	 2.151943	-2.355938	 2.896179	-0.916287	 2.928086	-2.740072	 1.480820	-94.539480	 58.981310	 174.105100	 6.561560	 23.792060	-40.935170	-20.232850	 2.427207	-8.019455	-0.205610	-7.408458	-7.874807	-4.852310	 20.524620	-3.067420	-3.783424	 22.707680	 2.103109	-4.723176	 6.541829	 0.087914	 0.123183	-5.416648	 0.334755	 1.180527	 1.921800	 2.273707	 89.357800	 61.892530	 178.979300	-15.251960	 53.841750	 5.292811	 9.888844	 2.325462	 8.064286	-4.601203	 11.345970	-4.355087	 6.168758	 15.814870	-0.629543	 2.899797	 34.979190	-7.871738	 2.433382	 15.299650	 2.724687
-0.071408	-2.481773	 1.130813	 7.144256	 0.962464	-3.310248	 10.596700	-4.049614	-178.433400	 2.706017	-45.860530	 1.689299	 144.174700	 85.662610	-148.296400	-2.265682	 42.607620	-0.347889	-23.101990	-49.479750	 176.386600	 10.621190	-34.911170	 6.570379	 12.724160	 81.945870	-10.160900	 2.339119	 35.628510	 0.165756	 2.565041	 6.797117	 1.822267	-2.352262	 3.649187	-0.874931	 2.965774	-3.306383	 1.428410	-94.507160	 59.234690	 174.131800	 5.193299	 23.418910	-41.627900	-20.070410	 2.355991	-7.912850	-0.753361	-8.360426	-8.408612	-4.880334	 20.622890	-3.260336	-3.762782	 22.962450	 2.082148	-4.679371	 7.049280	 0.057214	 0.195409	-5.480463	 0.271786	 1.366719	 1.852986	 2.173577	 89.355600	 61.616510	 178.984300	-14.267220	 53.827880	 3.022041	 8.608230	 2.244219	 7.957825	-4.600438	 10.852830	-5.322225	 6.202564	 13.675070	-0.344859	 3.039996	 33.356300	-7.988178	 2.836830	 13.254450	 2.580706
-0.077824	-2.533710	 1.122044	 7.468525	 0.580559	-2.462620	 10.065010	-0.622173	 179.373900	 1.814709	-44.312110	 1.021409	 39.917850	 88.514700	-42.378220	-2.126378	 50.475860	-0.602983	-20.759470	-50.681320	 176.255900	 7.247079	-34.752110	 4.583197	-4.003562	 73.138540	 11.407460	 2.340192	 35.499360	 0.162611	 2.843889	 6.905464	 1.002095	-2.394065	 4.305102	-0.738946	 2.933506	-3.475900	 1.254132	-94.442310	 59.347270	 174.252300	 4.104364	 23.055210	-42.203290	-20.056370	 2.277102	-7.790187	-1.206462	-8.475863	-8.452566	-4.894950	 20.746790	-3.385833	-3.750765	 23.109960	 2.069950	-4.624527	 7.679369	 0.018498	 0.277936	-5.468254	 0.243994	 1.542906	 2.035311	 2.352503	 89.337890	 61.403560	 178.950200	-13.481140	 53.703250	 1.385253	 7.469994	 2.155548	 7.835263	-4.868439	 10.323350	-5.778226	 6.285766	 11.602020	 0.107301	 3.160040	 31.903450	-8.086651	 3.184216	 11.457570	 2.467299
-0.084311	-2.595710	 1.114865	 8.515785	-0.154268	-1.593065	 9.973310	 3.997232	 176.556000	-0.462361	-41.485810	-0.539964	-3.643316	 79.334300	 4.876985	-1.895494	 58.225290	-0.942444	-17.160920	-49.545840	 177.528600	 7.104319	-34.678550	 4.492457	-11.129760	 62.688040	 22.536820	 2.334015	 36.226520	 0.180434	 2.604727	 7.226705	 0.203535	-2.746372	 4.810364	-0.865519	 2.786299	-3.468583	 1.161917	-94.381260	 59.045980	 174.432000	 3.490230	 22.433930	-42.353700	-20.062530	 2.185044	-7.643733	-1.285332	-7.342268	-8.095668	-4.892474	 20.953550	-3.440941	-3.729924	 23.364490	 2.048788	-4.562644	 8.383325	-0.025546	 0.378908	-5.404073	 0.289406	 1.651590	 2.390965	 2.526915	 89.195590	 61.389200	 178.614600	-12.737460	 53.636860	 0.272843	 6.921045	 2.058478	 7.688035	-5.163511	 9.777039	-5.042747	 6.347615	 9.671463	 0.405148	 3.324720	 29.811000	-8.219722	 3.465745	 9.978833	 2.382805
-0.092573	-2.666086	 1.108809	 9.913299	-0.699124	-0.482682	 9.484752	 7.608959	 173.272700	 1.203720	-41.151650	 0.560024	-5.252310	 64.548520	 9.365019	-1.012250	 71.054530	-1.997014	-19.886460	-46.719540	 175.008900	 8.809371	-36.118380	 5.673886	-10.558950	 56.753860	 22.087750	 2.348182	 34.495540	 0.138428	 2.278338	 7.262721	-0.486763	-3.478609	 5.124522	-1.814593	 2.502243	-3.325806	 1.448615	-94.253170	 59.311040	 174.665200	 3.813466	 22.573200	-41.956060	-19.216870	 2.067295	-7.465719	-0.668097	-5.774250	-8.564449	-4.824199	 21.254840	-3.136958	-3.679939	 23.967790	 1.998061	-4.506907	 9.010928	-0.065540	 0.401591	-5.335288	 0.244781	 1.612328	 2.812656	 2.454928	 89.030990	 60.897670	 178.256000	-11.972730	 53.011010	-0.607206	 7.362115	 1.950939	 7.505716	-4.642755	 9.223520	-3.573187	 6.368320	 8.601870	 0.499920	 3.391083	 28.933910	-8.272631	 3.644315	 9.031191	 2.332734
-0.101939	-2.739515	 1.105467	 10.009830	-0.989308	 0.634577	 15.620140	 8.051401	 167.175100	 1.832081	-43.324120	 1.015146	-4.408667	 48.332520	 16.946800	-1.591632	 64.379610	-1.329563	-22.636670	-43.684260	 172.156700	 7.370031	-38.450240	 5.075113	-8.414555	 56.479810	 21.191940	 2.367696	 31.640690	 0.072005	 3.059603	 7.323591	-1.119515	-3.947716	 4.758918	-2.585940	 2.326279	-3.019618	 1.560773	-94.096860	 59.881230	 174.916800	 4.622819	 23.643610	-40.994610	-17.387590	 1.929548	-7.259918	 0.220656	-4.852851	-8.975414	-4.766158	 21.462220	-2.855148	-3.623589	 24.636160	 1.940900	-4.467189	 9.454397	-0.094218	 0.343635	-5.373528	 0.175206	 1.455708	 3.061417	 2.436458	 88.999050	 60.266650	 178.219300	-11.758920	 52.280220	-1.079986	 8.024538	 1.833856	 7.299978	-3.672856	 8.037468	-2.205139	 6.399533	 9.004866	 0.621523	 3.375427	 29.142600	-8.260189	 3.667079	 8.909865	 2.326547
-0.110161	-2.804893	 1.105055	 8.648380	-1.554062	 1.525513	 20.702580	 6.434611	 162.328100	-0.089395	-48.352310	-0.330374	 0.879772	 43.185150	 15.318210	-2.373169	 30.968540	-0.055356	-22.598810	-42.938840	 170.736300	 6.849799	-44.178380	 5.317841	-7.674973	 60.395940	 21.098580	 2.374318	 30.485610	 0.046033	 5.021402	 7.813177	-1.738601	-3.915140	 3.694379	-2.610761	 2.354008	-2.420572	 1.273823	-94.040210	 59.754070	 175.059500	 5.323764	 24.591180	-39.477060	-15.996170	 1.800156	-7.053547	 0.328334	-4.525101	-8.364939	-4.734714	 21.870520	-2.794190	-3.575040	 25.202440	 1.891661	-4.422086	 9.954383	-0.126967	 0.265447	-5.411792	 0.176411	 1.230217	 3.091650	 2.589347	 89.100280	 60.264370	 178.449700	-12.140360	 52.356390	-1.237077	 8.378834	 1.719177	 7.091805	-2.896513	 7.009465	-1.079752	 6.407634	 10.250970	 0.648865	 3.280448	 30.385180	-8.184190	 3.553083	 9.516250	 2.357971
-0.118023	-2.872222	 1.107648	 7.145726	-2.241807	 2.174295	 23.563200	 3.401067	 158.839200	-3.963954	-55.596630	-3.563748	 3.648419	 48.129030	 12.346630	-2.380733	 29.540960	-0.023691	-22.029320	-41.163190	 170.292600	 7.235774	-49.131430	 6.061748	-8.710210	 66.222530	 21.830050	 2.374326	 30.485320	 0.046023	 7.172660	 8.357661	-2.179449	-3.711060	 2.362307	-2.549246	 2.424805	-1.675575	 1.109981	-93.992940	 59.477050	 175.202100	 6.412374	 25.664460	-37.538330	-14.808460	 1.659726	-6.813257	-0.136477	-4.853368	-7.833518	-4.660611	 22.882250	-2.657637	-3.521494	 25.816630	 1.837379	-4.342276	 10.829130	-0.185366	 0.174463	-5.347871	 0.111000	 1.002815	 3.018542	 2.564279	 89.321360	 60.353290	 178.949300	-13.046070	 52.657480	-0.614008	 8.915967	 1.593595	 6.848004	-2.035402	 5.823248	-0.265757	 6.391350	 12.136150	 0.567145	 3.092845	 32.724080	-8.031669	 3.316130	 10.767060	 2.426873
